<?xml version="1.0" encoding="UTF-8" standalone="no"?>
<svg width="500px" height="156px" viewBox="0 0 500 156" version="1.1" xmlns="http://www.w3.org/2000/svg" xmlns:xlink="http://www.w3.org/1999/xlink" xmlns:sketch="http://www.bohemiancoding.com/sketch/ns">
    <!-- Generator: Sketch 3.1.1 (8761) - http://www.bohemiancoding.com/sketch -->
    <title>Slice 2</title>
    <desc>Created with Sketch.</desc>
    <defs></defs>
    <g id="Page-1" stroke="none" stroke-width="1" fill="none" fill-rule="evenodd" sketch:type="MSPage">
        <g id="ixxi-logo" sketch:type="MSLayerGroup" fill="#FFFFFF">
            <path d="M464.7,153 L500,153 L500,0.3 L464.7,0.3 L464.7,153 L464.7,153 Z M0,153 L35.3,153 L35.3,0.3 L0,0.3 L0,153 L0,153 Z M403.5,-0.5 L348.5,53.4 L293.5,-0.5 L268.3,23.9 L323.3,78.2 L268.3,132.1 L293.5,156.5 L348.5,102.6 L403.5,156.5 L428.7,132.1 L373.7,78.2 L428.7,23.9 L403.5,-0.5 L403.5,-0.5 Z M207,-0.5 L152,53.4 L97,-0.5 L71.8,23.9 L126.8,78.2 L71.8,132.1 L97,156.5 L152,102.6 L207,156.5 L232.2,132.1 L177.2,78.2 L232.2,23.9 L207,-0.5 L207,-0.5 Z" id="Shape" sketch:type="MSShapeGroup"></path>
        </g>
    </g>
</svg>